<svg id="Capa_1" enable-background="new 0 0 512 512" height="512" viewBox="0 0 512 512" width="512" xmlns="http://www.w3.org/2000/svg"><g><path d="m446.327 81.86c-.363-1.154-1.009-2.213-1.869-3.064-.004-.004-77.444-76.628-77.445-76.629-1.387-1.372-3.324-2.167-5.273-2.167-.015 0-247.676 0-247.676 0-14.843 0-26.919 12.076-26.919 26.92v145.406h-3.954c-9.856 0-17.874 8.018-17.874 17.874v131.602c0 9.856 8.018 17.874 17.874 17.874h3.954v145.404c0 14.844 12.076 26.92 26.919 26.92h305.7c14.843 0 26.919-12.076 26.919-26.92 0 0 0-400.241 0-400.242 0-1.012-.05-2.005-.356-2.978zm-14.641 403.22c0 6.574-5.348 11.923-11.923 11.923h-305.7c-6.574 0-11.923-5.349-11.923-11.923v-145.405h265.871c9.856 0 17.874-8.018 17.874-17.874v-131.602c0-9.856-8.018-17.874-17.874-17.874h-166.628c-4.142 0-7.5 3.358-7.5 7.5s3.358 7.5 7.5 7.5h166.629c1.585 0 2.874 1.289 2.874 2.874v131.602c0 1.585-1.289 2.874-2.874 2.874h-284.821c-1.585 0-2.874-1.289-2.874-2.874v-131.602c0-1.585 1.289-2.874 2.874-2.874h83.749c4.142 0 7.5-3.358 7.5-7.5s-3.358-7.5-7.5-7.5h-64.798v-145.405c0-6.574 5.349-11.923 11.923-11.923h240.177v59.38c0 9.511 7.737 17.248 17.248 17.248h7.914c4.141 0 7.498-3.357 7.498-7.498s-3.357-7.498-7.498-7.498h-7.914c-1.242 0-2.252-1.01-2.252-2.252v-48.911l51.708 51.163h-7.227c-4.141 0-7.498 3.357-7.498 7.498s3.357 7.498 7.498 7.498h17.968v393.455z"/><path d="m128.969 212.807h-20.219c-1.992 0-3.901.792-5.308 2.202s-2.196 3.321-2.192 5.313c0 0 .145 71.4.145 71.4.007 1.99.805 3.895 2.216 5.296 1.405 1.395 3.304 2.177 5.284 2.177h.028c.61-.002 15.018-.058 20.768-.158 20.631-.36 35.606-18.459 35.606-43.035 0-25.837-14.599-43.195-36.328-43.195zm.46 71.231c-2.978.052-8.596.093-13.165.12v-56.351h12.705c15.725 0 21.328 14.564 21.328 28.194 0 13.328-6.53 27.787-20.868 28.037z"/><path d="m319.28 300.282c9.71 0 18.416-3.182 25.175-9.202 1.327-1.182 2.587-2.481 3.745-3.863 2.661-3.174 2.245-7.905-.929-10.566-3.175-2.661-7.904-2.245-10.566.929-.692.826-1.441 1.599-2.226 2.298-4.026 3.586-9.139 5.404-15.199 5.404-16.146 0-29.282-13.136-29.282-29.281 0-16.146 13.136-29.282 29.282-29.282 5.869 0 11.529 1.728 16.367 4.996 3.431 2.32 8.095 1.417 10.413-2.016 2.319-3.432 1.417-8.094-2.016-10.413-7.327-4.951-15.891-7.567-24.764-7.567-24.417 0-44.282 19.865-44.282 44.282s19.865 44.281 44.282 44.281z"/><path d="m175.866 256c0 24.417 19.865 44.281 44.282 44.281s44.282-19.864 44.282-44.281-19.865-44.282-44.282-44.282-44.282 19.865-44.282 44.282zm44.282-29.281c16.146 0 29.282 13.136 29.282 29.282s-13.136 29.281-29.282 29.281-29.282-13.136-29.282-29.282 13.136-29.281 29.282-29.281z"/></g></svg>