<svg xmlns="http://www.w3.org/2000/svg" xmlns:xlink="http://www.w3.org/1999/xlink" width="24" height="24" viewBox="0 0 24 24">
  <defs>
    <clipPath id="clip-Error">
      <rect width="24" height="24"/>
    </clipPath>
  </defs>
  <g id="Error" clip-path="url(#clip-Error)">
    <path id="Subtraction_4" data-name="Subtraction 4" d="M12-58a11.921,11.921,0,0,1-8.485-3.515A11.922,11.922,0,0,1,0-70a11.921,11.921,0,0,1,3.515-8.485A11.921,11.921,0,0,1,12-82a11.923,11.923,0,0,1,8.486,3.514A11.921,11.921,0,0,1,24-70a11.922,11.922,0,0,1-3.515,8.486A11.922,11.922,0,0,1,12-58Zm0-14.818a1.41,1.41,0,0,0-1.408,1.409v7.043A1.411,1.411,0,0,0,12-62.957a1.411,1.411,0,0,0,1.408-1.409v-7.043A1.41,1.41,0,0,0,12-72.817Zm0-4.226a1.41,1.41,0,0,0-1.408,1.409A1.41,1.41,0,0,0,12-74.226a1.41,1.41,0,0,0,1.408-1.409A1.41,1.41,0,0,0,12-77.043Z" transform="translate(0 82)" fill="#6D0022"/>
  </g>
</svg>
