<svg xmlns="http://www.w3.org/2000/svg" xmlns:xlink="http://www.w3.org/1999/xlink" width="24" height="24" viewBox="0 0 24 24">
  <defs>
    <clipPath id="clip-Warning">
      <rect width="24" height="24"/>
    </clipPath>
  </defs>
  <g id="Warning" clip-path="url(#clip-Warning)">
    <path id="Subtraction_3" data-name="Subtraction 3" d="M56.234-62H35.766a.989.989,0,0,1-.87-.507.989.989,0,0,1,.012-1.008L45.142-80.571A.993.993,0,0,1,46-81.056a.993.993,0,0,1,.858.485L57.092-63.515a.99.99,0,0,1,.012,1.008A.989.989,0,0,1,56.234-62ZM46.106-72.682A1.107,1.107,0,0,0,45-71.576v5.53a1.107,1.107,0,0,0,1.106,1.106,1.107,1.107,0,0,0,1.106-1.106v-5.53A1.107,1.107,0,0,0,46.106-72.682Zm0-3.317A1.107,1.107,0,0,0,45-74.894a1.107,1.107,0,0,0,1.106,1.106,1.107,1.107,0,0,0,1.106-1.106A1.107,1.107,0,0,0,46.106-76Z" transform="translate(-34 84)" fill="#ffa000"/>
  </g>
</svg>
